# xmcd
#
# Track frame offsets: 
#        150
#        17675
#        46200
#        84202
#        101570
#        118867
#        138655
#        171862
#        231497
#        239030
#        258120
#
# Disc length: 3530 seconds
#
# Revision: 1
# Processed by: cddbd v1.5.2PL0 Copyright (c) Steve Scherf et al.
# Submitted via: ExactAudioCopyFreeDBPlugin 1.0
#
DISCID=910dc80b
DTITLE=Roxy Gordon - Smaller Circles
DYEAR=1997
DGENRE=Country
TTITLE0=Smaller Circles
TTITLE1=Andrew Gray and the Ghost
TTITLE2=Long Gone Texas Woman
TTITLE3=Murder
TTITLE4=Indians
TTITLE5=Gods
TTITLE6=I Dreamed I Saw Joe Hill Last Night
TTITLE7=Willie
TTITLE8=Santa Fe Freight
TTITLE9=Bead Mountain, Valera
TTITLE10=Texas Eagle
EXTD=
EXTT0=
EXTT1=
EXTT2=
EXTT3=
EXTT4=
EXTT5=
EXTT6=
EXTT7=
EXTT8=
EXTT9=
EXTT10=
PLAYORDER=
